<svg xmlns="http://www.w3.org/2000/svg" xmlns:xlink="http://www.w3.org/1999/xlink" version="1.1" width="286.11" height="86" viewBox="0 0 286.11 86">
<defs>
<clipPath id="clip_0">
<path transform="matrix(.24,0,0,.24,-44.89,-140.82997)" d="M0 0H1562.5V1562.5H0Z" fill-rule="evenodd"/>
</clipPath>
<clipPath id="clip_1">
<path transform="matrix(.24,0,0,.24,-44.89,-140.82997)" d="M0 0H1562.5V1562.5H0Z" fill-rule="evenodd"/>
</clipPath>
<clipPath id="clip_2">
<path transform="matrix(.24,0,0,.24,-44.89,-140.82997)" d="M0 0H1562.5V1562.5H0Z"/>
</clipPath>
<clipPath id="clip_3">
<path transform="matrix(.24,0,0,.24,-44.89,-140.82997)" d="M0 0H1562.5V1562.5H0Z"/>
</clipPath>
<clipPath id="clip_4">
<path transform="matrix(.24,0,0,.24,-44.89,-140.82997)" d="M166.40758 753.1478 1285.9689 428.70365 1396.4364 809.8948 276.87516 1134.339 166.40758 753.1478Z"/>
</clipPath>
<clipPath id="clip_5">
<path transform="matrix(.24,0,0,.24,-44.89,-140.82997)" d="M166.40758 753.1478 1285.9689 428.70365 1396.4364 809.8948 276.87516 1134.339 166.40758 753.1478Z"/>
</clipPath>
<clipPath id="clip_6">
<path transform="matrix(.24,0,0,.24,-44.89,-140.82997)" d="M0 0H1562.5V1562.5H0Z" fill-rule="evenodd"/>
</clipPath>
</defs>
<g clip-path="url(#clip_0)">
<path transform="matrix(.75,0,0,.75,-44.89,-140.82997)" d="M0 0H500V500H0Z" fill="#ffffff"/>
</g>
<g clip-path="url(#clip_1)">
<path transform="matrix(.75,0,0,.75,-44.89,-140.82997)" d="M0 0H500V500H0Z" fill="#ffffff"/>
</g>
<g clip-path="url(#clip_2)">
<g clip-path="url(#clip_3)">
<g clip-path="url(#clip_4)">
<g clip-path="url(#clip_5)">
<path transform="matrix(2.8579753,-.82822927,.82822927,2.8579753,-32.963678,-46.043657)" d="M74.1294 45.24611C72.46 43.87941 70.7334 42.46581 68.985408 41.19381 63.287107 37.04691 56.554208 33.98341 49.514604 32.33451 43.931505 31.026612 38.1285 30.61701 32.498804 31.08811 32.242605 31.10641 31.988802 31.13351 31.733502 31.15581 31.5046 31.172909 31.278203 31.199 31.050103 31.219309 30.790204 31.239109 30.533204 31.268609 30.274403 31.29271 30.068903 31.309 29.866204 31.33491 29.661402 31.354 29.4346 31.3719 29.210103 31.396801 28.984202 31.418211 28.757102 31.436312 28.531903 31.460312 28.305802 31.482111 28.075901 31.500712 27.847702 31.52391 27.618802 31.546412 27.3885 31.565312 27.1597 31.587813 26.9307 31.610713 26.7015 31.629912 26.4734 31.651413 26.2455 31.674612 26.0116 31.694512 25.7785 31.715712 25.546002 31.739912 25.326102 31.758912 25.106402 31.777312 24.887803 31.800312 24.651902 31.820712 24.415802 31.839613 24.181303 31.864813 23.971404 31.883414 23.760504 31.897213 23.551903 31.919613 23.381302 31.931004 23.210404 31.944413 23.039004 31.958714 23.033404 31.959315 23.027903 31.959815 23.022303 31.960314 22.649003 31.991515 22.275103 32.024614 21.898003 32.069913 21.715603 32.087614 21.537503 32.115915 21.356303 32.13681 21.125603 32.15811 20.893702 32.17431 20.665003 32.20071 20.438603 32.22181 20.210303 32.23611 19.985804 32.26231 19.755105 32.28411 19.521904 32.29761 19.293105 32.32481 19.059805 32.347 18.823704 32.36021 18.592404 32.38811 18.444804 32.40251 18.292704 32.40371 18.145903 32.42031 17.878804 32.43751 17.613604 32.46061 17.349102 32.48551 17.114003 32.501615 16.881102 32.524114 16.648102 32.546415 16.416703 32.562517 16.187602 32.584814 15.958302 32.606916 15.735501 32.622617 15.514602 32.643716 15.293801 32.665006 15.099502 32.678506 14.906201 32.694906 14.713402 32.712907 14.449502 32.730207 14.187002 32.751508 13.925802 32.777109 13.718302 32.791208 13.514902 32.816308 13.309302 32.83571 13.065402 32.85161 12.825402 32.87761 12.584402 32.90091 10.324202 33.05151 8.184402 33.523309 6.192902 34.31741 4.3775 35.0416 2.6365 36.0703 1 37.35571V37.45721C2.6447 36.15831 4.3958 35.12031 6.2222 34.39161 7.4223 33.91331 8.6266 33.58031 9.8232 33.34351 8.8196 33.57191 7.8421 33.861909 6.9004 34.231 4.8303 35.03811 2.8475 36.2291 1 37.74421V37.848409C2.8555 36.31851 4.8483 35.116708 6.9297 34.305208 8.1019 33.846307 9.3265 33.500406 10.590799 33.259607 9.566699 33.485406 8.5693 33.774206 7.6083996 34.143606 5.2728 35.0341 3.0575 36.3755 1 38.12811V38.24131C3.0634 36.47411 5.3005 35.10881 7.6367 34.21831 8.7888 33.776014 9.9905 33.439313 11.231 33.20341 10.2316 33.42331 9.256 33.702314 8.3159 34.05661 5.7215 35.0232 3.2656 36.53011 1 38.5275V38.6196C3.0468 36.805299 5.4783 35.199499 8.3442 34.131799 9.5182 33.6891 10.744 33.3555 12.009001 33.1232 10.985801 33.3397 9.9869 33.6166 9.023901 33.9697 5.855301 35.1318 3.1997009 36.9227 1.000001 38.9224V39.0312C3.203401 37.0176 5.867601 35.2125 9.051301 34.0449 10.013201 33.6919 11.011101 33.4153 12.0333 33.1993 11.248301 33.3872 10.4799 33.6147 9.7314009 33.8833 6.2438 35.1347 3.3503 37.1246 1 39.3185V39.4302C3.3534 37.22199 6.2547 35.215898 9.7588009 33.9585 10.699501 33.6207 11.6745 33.3546 12.6724 33.1447 11.9119009 33.3256 11.166401 33.541299 10.4399 33.7964 6.6205999 35.137 3.4957 37.33981 1 39.725V39.8345C3.4975 37.4361 6.6315004 35.2177 10.4663 33.871599 11.3834 33.549699 12.3326 33.294698 13.3032 33.091398 12.569799 33.264898 11.8495 33.468397 11.1475 33.709497 6.9932 35.1353 3.6328 37.55241 1 40.11821V40.23071C3.6339 37.65141 7.0027 35.21671 11.1738 33.78471 12.075101 33.47551 13.007 33.22921 13.9592 33.03171 13.2442 33.19871 12.541 33.392614 11.8555 33.622613 7.3616 35.13041 3.7614 37.76431 1 40.4986V40.6129C3.7615 37.8654 7.3693 35.2123 11.8809 33.6987 12.793 33.3925 13.736 33.1492 14.6996 32.9547 13.9741 33.1197 13.2586 33.307603 12.563 33.5356 7.7193 35.124 3.882 37.983 1 40.8749V40.9872C3.8806 38.083604 7.7269 35.2056 12.5884 33.6118 13.4312 33.3353 14.3022999 33.116804 15.1887 32.9333 15.1956 32.9335 15.2026 32.9332 15.209499 32.9335 14.5538 33.0851 13.9023 33.2465 13.270999 33.4487 8.8224 34.87341 4.6478 37.54731 1 41.2482V41.3647C4.6524 37.6425 8.8358 34.9532 13.2954 33.524904 13.9993 33.2993 14.7227 33.1127 15.4567999 32.950304 15.4852 32.951704 15.512899 32.9546 15.5413 32.9561 15.0164999 33.0833 14.488 33.2026 13.979 33.3618 9.2695 34.83461 4.8457005 37.6707 1 41.6067V41.7209C4.8497 37.763704 9.2827 34.914 14.0024 33.437994 14.5856 33.255704 15.188601 33.113504 15.7923 32.973394 15.8146 32.97489 15.8367 32.976594 15.8589 32.978094 15.468 33.07709 15.0686 33.15879 14.686501 33.27539 9.722 34.79031 5.0428 37.76611 1 41.9273V42.0394C5.046 37.857599 9.735 34.869798 14.71 33.351598 15.1674 33.211896 15.6434 33.109998 16.1134 32.995698 16.1287 32.996797 16.1441 32.997697 16.159399 32.9988 15.906199 33.065698 15.643899 33.1138 15.394499 33.18799 10.1738 34.74231 5.2391 37.8572 1 42.23631V42.35461C5.2424 37.95341 10.1859 34.822713 15.417 33.26511 15.7439999 33.16771 16.0865 33.10171 16.419899 33.01681 16.427899 33.017515 16.435999 33.01781 16.443999 33.018514 16.331698 33.04941 16.213599 33.068716 16.102099 33.101114 10.6227 34.6921 5.4362 37.95831 1 42.55241V42.66851C5.439 38.05231 10.6346 34.77161 16.1245 33.17821 16.312 33.12381 16.5097 33.08981 16.6992 33.03941 16.7074 33.04021 16.7152 33.04161 16.723299 33.042409 11.0214 34.67461 5.6082 38.0588 1 42.831V42.9452C5.6343 38.1268 11.0878 34.716604 16.831501 33.0913 16.864102 33.0821 16.898901 33.0768 16.931502 33.0677 16.966301 33.0715 17.000203 33.0765 17.035002 33.0804 11.2258 34.7831 5.6943 38.22281 1 43.07481V43.187C5.742 38.2663 11.3452 34.79131 17.2264 33.10381 17.2612 33.10791 17.2957 33.11221 17.3304 33.11651 11.572801 34.841409 6.0732 38.20611 1.3789005 42.928209 1.2497001 43.0582 1.128 43.2 1 43.33181V43.44681C1.1467 43.29521 1.2872 43.134004 1.4355 42.984914 6.1668 38.225004 11.7177 34.844915 17.5245 33.140214 17.552599 33.143915 17.5811 33.146814 17.6092 33.150514 11.949499 34.88061 6.530199 38.14041 1.8661995 42.674314 1.5709 42.9614 1.289 43.268 1 43.56411V43.67811C1.3071 43.362409 1.6077001 43.037408 1.9219 42.731908 6.6246006 38.160108 12.0963 34.886709 17.8068 33.174707 17.8281 33.177705 17.8502 33.179506 17.8715 33.182607 12.3144 34.912996 6.9809 38.072107 2.3535004 42.420408 1.8937 42.8525 1.4475 43.31171 1 43.7682V43.8632C1.4629 43.3889 1.9319 42.9266 2.4082 42.479 7.0743 38.09391 12.4595 34.92361 18.0667 33.20871 18.0798 33.21061 18.0923 33.21331 18.1054 33.21531 12.657 34.94241 7.4199 38.0055 2.8408 42.167 2.2145 42.7361 1.6033001 43.33331 1 43.9444V44.0746C1.6222 43.4417 2.2476 42.8144 2.8945 42.2266 7.5094997 38.0323 12.7946 34.9607 18.2892 33.2468 18.3133 33.2506 18.3365 33.2552 18.3605 33.259099 13.0115 34.976598 7.8608009 37.928499 3.3281003 41.913099 2.5332 42.6118 1.7588999 43.3461 1 44.10571V44.22891C1.775 43.446 2.5662 42.689809 3.3809 41.97361 7.9452 37.960809 13.1357 34.994 18.5242 33.28721 18.5531 33.292009 18.581702 33.297109 18.6106 33.302 13.3626999 35.00461 8.299399 37.84591 3.8158999 41.659708 2.8472 42.4836 1.9139 43.3638 1 44.2734V44.3976C1.931 43.4665 2.879 42.5612 3.8677 41.7202 8.3836 37.8793 13.488001 35.0242 18.7771 33.3306 18.7992 33.3345 18.821499 33.3381 18.8436 33.34199 13.698199 35.026704 8.728899 37.762304 4.3032 41.4062 3.1589 42.3483 2.068 43.3695 1 44.42321V44.991C1.7161 44.3362 2.4384 43.6874 3.1891 43.0716 3.3106 42.9729 3.4288 42.869905 3.5511 42.7723 3.8893 42.499704 4.2386004 42.2416 4.5831 41.9772 5.0529 41.6205 5.5197 41.259599 6.0007 40.9184 6.0023 40.9173 6.0038 40.9162 6.0054 40.9151 10.3922 37.8037 15.236 35.345 20.3602 33.6485 22.9985 34.256299 25.2777 35.1368 26.933102 35.894498 33.036603 38.690397 38.3916 42.994096 43.5698 47.156198 43.888204 47.412099 44.2061 47.667497 44.524404 47.922899 50.258806 52.5225 55.949705 56.8564 62.510705 59.329099 66.433109 60.8071 70.5903 61.573698 74.86671 61.6084 74.96731 61.609399 75.06691 61.609899 75.1675 61.609899 79.3384 61.609899 83.4048 60.9097 87.2578 59.528299 87.35701 59.4927 87.4528 59.4531 87.5516 59.41699 87.6459 59.38389 87.7429 59.35769 87.8369 59.32369 87.9281 59.290788 88.0165 59.253889 88.1074 59.22049 88.2093 59.18459 88.313999 59.15609 88.4155 59.11909 88.49601 59.089994 88.57431 59.056894 88.65461 59.02729 88.767009 58.98739 88.88271 58.95559 88.994609 58.91459 89.04851 58.89489 89.0994 58.86979 89.153209 58.849889 89.292407 58.800489 89.43541 58.76069 89.57371 58.709489 89.617908 58.693288 89.65951 58.672189 89.703609 58.655889 89.8523 58.60299 90.005008 58.559988 90.15281 58.504888 90.210109 58.483789 90.26621 58.459386 90.32341 58.437887 90.45871 58.389486 90.59781 58.350488 90.73241 58.300287 90.767009 58.287385 90.799907 58.270288 90.834407 58.257287 90.9924 58.200689 91.15451 58.154687 91.3115 58.095689 91.3426 58.08399 91.372 58.06849 91.403 58.05679 91.5645 57.998689 91.7302 57.95139 91.8906 57.89059 91.9241 57.87789 91.9567 57.86319 91.99019 57.85039 92.149 57.792894 92.312099 57.746194 92.469699 57.685995 92.495098 57.67639 92.51949 57.66519 92.5448 57.655504 92.6481 57.6179 92.753 57.586503 92.8561 57.547704 92.893009 57.536104 92.9291 57.521406 92.9661 57.5096 92.9934 57.499204 93.0215 57.4915 93.048809 57.48099 93.05192 57.4798 93.05472 57.4784 93.05781 57.477193 93.17261 57.440195 93.28521 57.394895 93.399608 57.35639 93.59141 57.296194 93.7797 57.22209 93.970409 57.15779 94.16141 57.097494 94.34891 57.024194 94.5389 56.95979 94.6938 56.91089 94.84649 56.85379 95 56.79959V55.852193C92.5147 56.02679 89.9222 55.84159 87.1836 55.27439 84.7925 54.779794 82.4282 53.863794 79.955608 52.47309 76.705608 50.646493 73.6631 48.21289 70.72072 45.85939 69.235408 44.67189 67.70022 43.44339 66.16022 42.31149 65.34472 41.711889 64.50782 41.127389 63.673318 40.574689 57.888219 36.73879 51.712919 34.02289 45.319818 32.501989 42.017019 31.715498 38.670919 31.275498 35.368219 31.174298 38.88532 31.225499 42.457719 31.646988 45.98192 32.456998 52.432619 33.939897 58.607919 36.602998 64.336917 40.371599 65.17142 40.9209 66.00681 41.500989 66.81931 42.0967 68.41161 43.2642 69.99661 44.5391 71.52931 45.771989 74.407718 48.0869 77.384319 50.480989 80.56101 52.29099 83.033718 53.7017 85.39602 54.63089 87.783718 55.131799 89.906719 55.5776 91.94092 55.801298 93.90192 55.801298 94.27092 55.801298 94.636119 55.788896 95.000019 55.772989V55.670289C92.706317 55.77279 90.31962 55.58299 87.800319 55.053689 85.42091 54.554189 83.06592 53.627889 80.60111 52.221689 77.429729 50.41459 74.45561 48.022489 71.57961 45.709489 70.04591 44.47609 68.46043 43.201189 66.86623 42.03219 66.05272 41.43549 65.21682 40.85449 64.38091 40.305189 58.644014 36.53079 52.45951 33.86429 45.99951 32.378889 42.73881 31.629088 39.43561 31.209788 36.173315 31.108887 39.660314 31.160487 43.191015 31.564087 46.662115 32.333978 53.17681 33.779279 59.361314 36.392587 65.04441 40.102079 65.88431 40.65038 66.71921 41.227479 67.52591 41.81688 69.17141 43.02048 70.80571 44.34278 72.3857 45.62108 75.1987 47.896478 78.1069 50.248979 81.2056 52.039979 83.67239 53.466279 86.0254 54.405279 88.39991 54.911088 90.53561 55.366189 92.5806 55.59419 94.55031 55.59419 94.70141 55.59419 94.850208 55.58699 95.00001 55.58299V55.47719C92.895908 55.51869 90.71361 55.322088 88.416507 54.83299 86.050807 54.329099 83.7051 53.39259 81.245609 51.970689 78.152309 50.182588 75.246608 47.83199 72.436008 45.55909 70.85501 44.27979 69.22021 42.95749 67.57281 41.752389 66.76511 41.162088 65.92921 40.58399 65.08841 40.034688 59.39701 36.320287 53.20361 33.703088 46.67971 32.255887 43.44961 31.539687 40.16821 31.140086 36.91851 31.044587 40.39531 31.092087 43.90411 31.476387 47.34281 32.211389 53.92041 33.617189 60.11381 36.181188 65.75151 39.83249 66.586917 40.37299 67.42141 40.94679 68.23191 41.53759 69.92871 42.77589 71.60991 44.14359 73.2354 45.46629 75.9844 47.70309 78.8267 50.01609 81.8506 51.78859 84.3091 53.230489 86.653308 54.179689 89.0166 54.69039 91.0942 55.139394 93.0826 55.36689 95 55.381895V55.276094C93.0869 55.265794 91.1078 55.060396 89.0332 54.612295 86.6787 54.103494 84.3423 53.157194 81.8906 51.719194 78.87259 49.95019 76.0327 47.63919 73.2861 45.404294 71.6597 44.081094 69.9775 42.712396 68.2788 41.47309 67.4673 40.88129 66.6313 40.30659 65.7954 39.76509 60.149404 36.10889 53.946306 33.54098 47.3594 32.13329 43.5731 31.32419 39.7018 30.94459 35.8809 30.967789 47.6403 30.69809 59.3611 34.28909 68.9385 41.25829 70.6846 42.52929 72.4102 43.94189 74.0786 45.30809 78.7949 49.16939 83.6714 53.16209 89.6328 54.469194 91.49031 54.876794 93.2733 55.098794 95 55.156095V55.066797C93.2794 55.013196 91.5026 54.797498 89.6504 54.391096 83.707 53.08841 78.8379 49.1016 74.1294 45.24611ZM15.745 32.90321C15.7206 32.90171 15.6959 32.899709 15.6715 32.89821 15.7161 32.88881 15.7629 32.885 15.8075 32.87581 15.8196 32.87621 15.8317999 32.87711 15.8441 32.87751 15.8106 32.8852 15.7784 32.8954 15.745 32.90321ZM26.9095 31.94761C31.1296 32.09051 34.922304 32.98291 37.8179 33.93071 43.5439 35.80421 49.272504 38.87891 55.845705 43.60741 56.6528 44.18851 57.492704 44.80811 58.341806 45.44871 59.118707 46.03561 59.907205 46.641115 60.669904 47.226613 64.508808 50.173814 68.478008 53.22121 72.8252 55.307615 75.33059 56.513216 77.8745 57.345216 80.3862 57.781717 83.9482 58.401418 87.4033 58.433008 90.715 57.880716 87.21521 58.544115 83.55869 58.569616 79.7837 57.923315 77.2661 57.493715 74.719699 56.673814 72.2148 55.486814 67.752 53.37551 63.684598 50.257814 59.7515 47.243215 59.0737 46.723615 58.373 46.186513 57.683099 45.66461 56.7964 44.993715 55.9795 44.38821 55.185098 43.81301 48.538599 38.99662 42.811998 35.87162 37.163099 33.97711 33.7847 32.84421 30.374497 32.170915 27.026398 31.974612 26.948498 31.970112 26.873299 31.974112 26.795598 31.970002 26.8336 31.96251 26.8716 31.955101 26.9095 31.94761ZM26.4259 32.0428C29.9352 32.186803 33.5635 32.854703 37.1377 34.0532 42.7788 35.9448 48.498498 39.0664 55.1382 43.8774 55.9321 44.4526 56.749 45.058099 57.6353 45.728 58.3247 46.25 59.0254 46.7871 59.7026 47.30661 63.6392 50.32421 67.71 53.44431 72.180698 55.55911 74.691898 56.749509 77.2456 57.57131 79.76998 58.002408 83.33338 58.612707 86.79428 58.638509 90.115398 58.084207 86.6048 58.748708 82.94258 58.779607 79.16699 58.144006 76.63279 57.718706 74.07669 56.909208 71.57029 55.737806 66.97659 53.597208 62.80319 50.400907 58.76709 47.310106 58.17039 46.853006 57.57419 46.396505 56.97709 45.943807 56.08149 45.264608 55.263689 44.655809 54.47749 44.082506 47.67139 39.115205 42.12159 36.036607 36.48339 34.100606 33.09429 32.936006 29.660792 32.262407 26.327092 32.062307 26.36 32.0555 26.393 32.04961 26.4259 32.0428ZM26.0436 32.11821C29.4567 32.29571 32.9813 32.98191 36.457 34.17581 42.087404 36.109415 47.6309 39.184614 54.430704 44.14701 55.2163 44.72021 56.033704 45.32862 56.928705 46.00732 57.525403 46.46001 58.121606 46.91652 58.718706 47.37352 62.758306 50.46732 66.935108 53.66602 71.5361 55.81012 74.04979 56.98492 76.61229 57.79642 79.153308 58.22312 82.719509 58.82292 86.186809 58.84302 89.5184 58.28672 85.9973 58.95262 82.328609 58.99002 78.54979 58.36472 76.00289 57.94482 73.43749 57.14552 70.92479 55.98932 66.20169 53.81982 61.92289 50.545919 57.78519 47.37992 57.28029 46.99322 56.77539 46.60742 56.270994 46.22362 55.365194 45.53522 54.547395 44.92332 53.769994 44.35252 49.13919 40.94922 42.912096 36.72272 35.803194 34.22362 32.48849 33.057825 29.136393 32.37712 25.877694 32.15082 25.9327 32.1389 25.9885 32.12991 26.0436 32.11821ZM25.5988 32.2057C28.9352 32.4108 32.3763 33.103 35.7769 34.2988 42.8755 36.794404 49.0962 41.0171 53.7231 44.416994 54.4995 44.987295 55.317399 45.599103 56.2222 46.2871 56.727098 46.670904 57.2314 47.057104 57.736799 47.4434 61.8779 50.6123 66.160198 53.889204 70.8916 56.0615 73.4106 57.2212 75.9829 58.0225 78.5371 58.4438 82.103809 59.0331 85.5761 59.047803 88.916408 58.490404 85.386508 59.1566 81.713008 59.1995 77.933109 58.585405 75.37211 58.170904 72.796909 57.3813 70.27981 56.239706 65.41751 54.040006 61.02641 50.680704 56.779809 47.431604 56.374509 47.1216 55.969209 46.8115 55.564508 46.502904 54.651906 45.807603 53.833509 45.1924 53.063009 44.622106 48.092809 40.944307 42.074708 36.847208 35.123506 34.346208 31.887005 33.181509 28.619605 32.492906 25.439705 32.240106 25.4926 32.2281 25.5458 32.21751 25.5988 32.2057ZM24.4377 32.49081C27.4911 32.78721 30.6243 33.49691 33.7358 34.66751 40.420404 37.18121 46.272005 41.227514 51.6001 45.226114 52.355504 45.79251 53.150403 46.39601 54.103 47.12501L54.6782 47.56541C59.1572 50.997114 63.7886 54.54541 68.9575 56.81541 71.4883 57.92921 74.0889 58.70021 76.6875 59.10641 80.2031 59.65671 83.6362 59.657114 86.9543 59.12101 83.4301 59.75692 79.752 59.81252 76.083 59.24801 73.4775 58.848619 70.8735 58.08981 68.3447 56.99371 63.024896 54.69191 58.271505 51.04441 53.674806 47.51661L53.445306 47.34081C52.700708 46.770009 51.821306 46.09671 50.940908 45.43161 45.548307 41.35741 39.652307 37.23931 33.084009 34.71531 30.137007 33.58271 27.172907 32.86821 24.276509 32.531209 24.3303 32.51791 24.3839 32.5041 24.4377 32.49081ZM23.4531 32.53C23.453701 32.53 23.4543 32.53011 23.455 32.53021 23.4276 32.53721 23.4004 32.54511 23.373 32.552209 23.3998 32.54551 23.4263 32.53671 23.4531 32.53ZM22.9962 32.3615C22.998002 32.3616 22.9999 32.3615 23.001702 32.3616 22.959702 32.3715 22.917702 32.382299 22.875702 32.3922 22.875203 32.3922 22.874903 32.3922 22.874402 32.3921 22.9151 32.3828 22.9555 32.3707 22.9962 32.3615ZM22.893 32.60291C22.8519 32.61371 22.8109 32.62621 22.7698 32.637109 22.767601 32.636808 22.7654 32.63651 22.7631 32.636308 22.8065 32.62511 22.8497 32.614 22.893 32.60291ZM22.5675 32.6926C22.5681 32.6926 22.568699 32.6927 22.5693 32.6928 22.545599 32.6992 22.5219 32.7061 22.4982 32.712499 22.5214 32.70641 22.5444 32.6987 22.5675 32.6926ZM22.3792 32.4263C22.3892 32.4268 22.3987 32.4261 22.4088 32.4267 22.369 32.4362 22.3293 32.44699 22.2895 32.4566 22.2825 32.4561 22.2755 32.4555 22.2684 32.455 22.3055 32.4464 22.3422 32.43481 22.3792 32.4263ZM22.3628 32.66681C22.364102 32.667 22.365502 32.66721 22.366902 32.667409 22.306902 32.683408 22.247502 32.702608 22.187602 32.71901 22.1776 32.717809 22.167502 32.716409 22.1576 32.71511 22.2258 32.697 22.2946 32.6846 22.3628 32.66681ZM22.3205 32.9804C22.2874 32.9901 22.2545 33.001 22.2214 33.0107 22.253899 33.0012 22.2859 32.9894 22.3184 32.98 22.3191 32.98021 22.3198 32.9803 22.3205 32.9804ZM22.0338 32.51571C22.0389 32.51611 22.044 32.51661 22.0491 32.517 22.0081 32.527208 21.967001 32.53751 21.926 32.54791 21.9219 32.54751 21.9178 32.547208 21.9136 32.54691 21.953701 32.5372 21.9937 32.52531 22.0338 32.51571ZM21.9648 32.7715C21.9741 32.7726 21.9833 32.77399 21.9926 32.7751 21.9306 32.7924 21.869 32.8112 21.8071 32.8286 21.7992 32.827505 21.7914 32.8265 21.7836 32.8254 21.8442 32.8088 21.9042 32.788 21.9648 32.7715ZM21.7507 32.4929C21.7639 32.493703 21.7771 32.4953 21.7902 32.4961 21.750599 32.505804 21.711199 32.51699 21.671599 32.5269 21.659399 32.525804 21.647198 32.5248 21.634999 32.5238 21.6737 32.51461 21.712 32.502 21.7507 32.4929ZM21.7459 33.07261C21.748799 33.07311 21.751799 33.073709 21.7547 33.074209 21.6781 33.097208 21.6022 33.123208 21.5257 33.146509 21.5215 33.145807 21.5173 33.145009 21.5131 33.144208 21.5908 33.1208 21.6681 33.0956 21.7459 33.07261ZM21.4238 32.9389C21.4188 32.9381 21.4138 32.9376 21.4088 32.9368 21.4716 32.9189 21.5339 32.898599 21.5966 32.88099 21.6031 32.88179 21.6096 32.882699 21.616 32.8835 21.5519 32.90191 21.4879 32.9202 21.4238 32.9389ZM21.5895 32.7999C21.5784 32.7984 21.5673 32.7969 21.5562 32.7955 21.6246 32.7769 21.6935 32.763704 21.762 32.745405 21.7645 32.745706 21.766999 32.746206 21.769499 32.746404 21.7093 32.76291 21.6497 32.783 21.5895 32.7999ZM21.6775 32.608C21.679699 32.6082 21.682 32.608404 21.6843 32.6086 21.642 32.6195 21.5996 32.6293 21.5574 32.6404 21.556099 32.6403 21.5549 32.6403 21.5536 32.6401 21.595 32.6297 21.6361 32.61831 21.6775 32.608ZM21.4042 32.5854C21.4146 32.5862 21.425 32.5872 21.4354 32.588 21.3946 32.5984 21.3538 32.6091 21.313 32.6197 21.3036 32.6188 21.294199 32.618204 21.2848 32.617303 21.3247 32.60751 21.3643 32.5951 21.4042 32.5854ZM21.3594 32.8497C21.3738 32.8516 21.3883 32.8536 21.4027 32.8554 21.3404 32.8732 21.2784 32.8929 21.2162 32.9109 21.2032 32.909 21.1902 32.9075 21.1772 32.9056 21.2382 32.8884 21.2985 32.86671 21.3594 32.8497ZM20.9319 33.2496C20.9229 33.2479 20.9138 33.2459 20.9048 33.244199 20.9941 33.2165 21.083601 33.190198 21.1731 33.162988 21.1782 33.1639 21.1834 33.164987 21.1885 33.1658 21.1027 33.19231 21.0176 33.22271 20.9319 33.2496ZM20.9594 33.3255C20.9413 33.3312 20.9235 33.3368 20.9055 33.3425 20.9231 33.336999 20.940602 33.3308 20.9583 33.3253 20.9586 33.32541 20.959 33.32541 20.9594 33.3255ZM9.2333 38.5023C12.160501 36.679 15.2444 35.1671 18.4122 34.0065 15.2489 35.1757 12.164 36.6879 9.2333 38.5023ZM19.0468 33.87051C16.6685 34.72141 14.3339 35.75981 12.072901 36.96551 14.3362 35.75211 16.6699 34.71391 19.0468 33.87051ZM18.9449 33.8208C19.2276 33.721 19.5096 33.619104 19.7933 33.525 19.799302 33.526205 19.805102 33.527605 19.811 33.5289 19.5222 33.6258 19.2327 33.7182 18.9449 33.8208ZM19.7722 33.44791C19.756199 33.44451 19.7402 33.44111 19.7242 33.43781 19.821 33.40611 19.918999 33.382 20.015999 33.35101 20.023299 33.35241 20.0306 33.35381 20.037999 33.35521 19.949 33.3842 19.8611 33.4184 19.7722 33.44791ZM18.4972 32.88451C18.4745 32.88211 18.4517 32.87921 18.429 32.87681 18.490702 32.860708 18.5547 32.850309 18.6165 32.83461 18.628602 32.83561 18.640702 32.83691 18.652802 32.83791 18.6007 32.852 18.5493 32.8702 18.4972 32.88451ZM18.6192 32.96471C18.5522 32.98391 18.4854 33.00351 18.418499 33.02321 18.3928 33.01981 18.3676 33.017709 18.3419 33.01431 18.4061 32.99621 18.469799 32.97451 18.5341 32.95681 18.5626 32.9598 18.5907 32.96161 18.6192 32.96471ZM18.830101 32.98611C18.8488 32.98831 18.867802 32.99191 18.886502 32.99411 18.8143 33.01531 18.741803 33.03391 18.669602 33.05551 18.653101 33.05321 18.636202 33.049814 18.619702 33.047513 18.6899 33.02731 18.7599 33.00591 18.830101 32.98611ZM19.0836 33.0219C19.0947 33.0233 19.105999 33.0252 19.117199 33.0267 19.0402 33.0496 18.962399 33.0669 18.885399 33.0904 18.8762 33.0891 18.8669 33.0873 18.857699 33.0859 18.9329 33.06371 19.0083 33.04351 19.0836 33.0219ZM18.9885 32.94C19.050902 32.92281 19.112702 32.902509 19.175202 32.88561 19.199002 32.888109 19.222702 32.88961 19.246602 32.89221 19.1818 32.910409 19.117 32.928609 19.0522 32.94721 19.0308 32.9445 19.0098 32.9427 18.9885 32.94ZM19.3171 33.05481C19.323801 33.05571 19.3304 33.05681 19.3372 33.05771 19.2661 33.07921 19.1959 33.10711 19.1249 33.12901 19.1086 33.12652 19.092202 33.12372 19.075901 33.12121 19.1561 33.0971 19.2369 33.0783 19.3171 33.05481ZM20.1456 33.00491C20.1675 33.007909 20.189299 33.01091 20.211199 33.014 20.1367 33.0363 20.062699 33.0619 19.9882 33.08461 19.9662 33.08111 19.9443 33.07761 19.9224 33.07421 19.9969 33.05191 20.071 33.0266 20.1456 33.00491ZM20.139 32.92321C20.2029 32.90521 20.267 32.88951 20.3309 32.87191 20.3326 32.87211 20.3345 32.87251 20.3362 32.87271 20.2712 32.891214 20.205502 32.90451 20.140501 32.923414 20.14 32.92331 20.1395 32.92321 20.139 32.92321ZM20.0295 33.1553C20.043499 33.1576 20.0574 33.159 20.0714 33.1613 19.9856 33.1879 19.8996 33.2131 19.813799 33.2403 19.8021 33.238199 19.7906 33.236799 19.778899 33.2346 19.8625 33.20861 19.9458 33.18081 20.0295 33.1553ZM19.6035 33.20631C19.584301 33.20291 19.5652 33.20041 19.546 33.197 19.6246 33.17281 19.7025 33.143999 19.7811 33.120309 19.802899 33.123708 19.8245 33.126008 19.8463 33.12951 19.7653 33.15451 19.6844 33.18081 19.6035 33.20631ZM19.7484 33.0466C19.7333 33.0443 19.7182 33.0417 19.7032 33.0395 19.7817 33.016504 19.861 32.9989 19.939499 32.976404 19.945199 32.977205 19.950699 32.977994 19.956398 32.9788 19.8867 32.9994 19.8179 33.0256 19.7484 33.0466ZM19.508 33.00871C19.503199 33.007909 19.4982 33.007 19.493399 33.00631 19.567198 32.98521 19.641098 32.96611 19.7149 32.945409 19.7214 32.94621 19.7281 32.947309 19.734599 32.94811 19.6593 32.9701 19.5833 32.98621 19.508 33.00871ZM19.5322 33.08521C19.5551 33.08851 19.5778 33.09161 19.6007 33.09481 19.524601 33.11811 19.4491 33.14541 19.3731 33.16911 19.3469 33.16481 19.3209 33.16071 19.2948 33.15651 19.374 33.1324 19.4529 33.10881 19.5322 33.08521ZM19.1642 33.20041C19.1904 33.20451 19.2164 33.20741 19.2427 33.211709 19.1592 33.23811 19.076102 33.266408 18.9927 33.29331 18.9692 33.28911 18.9459 33.285909 18.922402 33.281709 19.0033 33.25621 19.0833 33.2253 19.1642 33.20041ZM19.4219 33.23751C19.4394 33.24041 19.457 33.244314 19.4744 33.24721 19.387 33.275014 19.2994 33.30181 19.2121 33.33021 19.1962 33.327215 19.1803 33.324514 19.164399 33.321615 19.2503 33.2942 19.3359 33.26431 19.4219 33.23751ZM19.6393 33.2788C19.649399 33.2806 19.659399 33.282804 19.6694 33.2845 19.5782 33.3138 19.486399 33.3387 19.3953 33.368703 19.3873 33.367105 19.3792 33.3652 19.3713 33.3636 19.4606 33.3348 19.55 33.3069 19.6393 33.2788ZM19.8373 33.31681C19.8401 33.31731 19.8428 33.31791 19.8456 33.31841 19.754302 33.347909 19.6628 33.375509 19.571702 33.405809 19.5669 33.404809 19.562 33.403707 19.5573 33.402708 19.6503 33.37251 19.7441 33.34641 19.8373 33.31681ZM20.1943 33.3852C20.2034 33.387 20.2125 33.388704 20.2216 33.3904 20.1289 33.4206 20.0367 33.4532 19.944199 33.484 19.937298 33.482503 19.930399 33.481103 19.923499 33.47961 20.0141 33.44981 20.1036 33.41441 20.1943 33.3852ZM20.1675 33.3101C20.164799 33.3095 20.161999 33.3088 20.159399 33.3083 20.188799 33.2991 20.2184 33.2913 20.247899 33.282 20.2209 33.2906 20.1944 33.30141 20.1675 33.3101ZM19.9938 33.2743C19.9903 33.273599 19.986599 33.2727 19.983 33.272 20.0705 33.24461 20.1582 33.2183 20.2458 33.19141 20.2513 33.19231 20.2568 33.19361 20.2622 33.19451 20.173 33.2225 20.083 33.2458 19.9938 33.2743ZM20.2079 33.1193C20.193499 33.1169 20.1791 33.114904 20.1647 33.1125 20.2419 33.0893 20.3184 33.0621 20.3956 33.0394 20.4124 33.041898 20.428999 33.0439 20.445799 33.0464 20.3665 33.0703 20.2872 33.09491 20.2079 33.1193ZM20.5464 32.9011C20.5515 32.9017 20.5565 32.9024 20.5616 32.9031 20.5039 32.9197 20.4468 32.9407 20.3891 32.9577 20.3758 32.9557 20.3624 32.954099 20.349099 32.9521 20.4147 32.93341 20.4808 32.91941 20.5464 32.9011ZM20.5312 32.8185C20.5888 32.803 20.6464 32.787504 20.704 32.7723 20.7089 32.7728 20.7138 32.7731 20.7187 32.7736 20.6595 32.7899 20.599902 32.8032 20.5406 32.8198 20.5375 32.81931 20.5343 32.8189 20.5312 32.8185ZM20.4084 33.1511C20.4016 33.1498 20.3948 33.14899 20.3879 33.1478 20.47 33.123 20.5518 33.0967 20.6339 33.0723 20.6428 33.0737 20.6517 33.0746 20.660599 33.076 20.5766 33.1016 20.4923 33.12511 20.4084 33.1511ZM20.6094 33.2598C20.5224 33.2873 20.4362 33.3194 20.3492 33.3475 20.3394 33.3455 20.329699 33.3434 20.319899 33.3414 20.413699 33.3115 20.508399 33.2877 20.602299 33.2584 20.6047 33.2589 20.6071 33.2593 20.6094 33.2598ZM20.6276 32.9906C20.6094 32.9879 20.5916 32.9859 20.5734 32.9832 20.6315 32.9663 20.689002 32.9448 20.7471 32.9282 20.7665 32.9307 20.7861 32.9335 20.8055 32.936 20.746 32.9534 20.687 32.973 20.6276 32.9906ZM20.849 33.10331C20.8498 33.103509 20.8505 33.10361 20.851302 33.10371 20.813302 33.11531 20.775002 33.12491 20.737002 33.136613 20.7743 33.12531 20.8116 33.11451 20.849 33.10331ZM20.845 33.02121C20.835299 33.01971 20.8254 33.01811 20.815699 33.01651 20.875498 32.999 20.934899 32.97881 20.994799 32.96161 21.006499 32.96331 21.018099 32.96471 21.0297 32.96631 20.9681 32.98441 20.9066 33.00291 20.845 33.02121ZM21.2224 32.99231C21.226 32.99291 21.2296 32.99331 21.2332 32.99381 21.1634 33.014509 21.093401 33.033109 21.0236 33.054109 21.0217 33.053808 21.0198 33.053308 21.018 33.05301 21.0861 33.033 21.1542 33.0121 21.2224 32.99231ZM21.3536 33.19621C21.356699 33.196809 21.3598 33.19741 21.3629 33.19791 21.2735 33.22551 21.1844 33.25451 21.0951 33.28261 21.0938 33.28231 21.092701 33.28221 21.0914 33.28191 21.179 33.2546 21.2658 33.223 21.3536 33.19621ZM20.9878 32.8801C20.9755 32.8784 20.963202 32.8768 20.950901 32.8751 21.019701 32.8558 21.089102 32.8419 21.157902 32.8231 21.161602 32.8235 21.165202 32.8241 21.168803 32.8245 21.1083 32.84161 21.0483 32.86271 20.9878 32.8801ZM21.0752 32.5713C21.0903 32.5677 21.106099 32.5656 21.1213 32.562 21.1364 32.563 21.1517 32.5647 21.1667 32.5657 21.1273 32.5756 21.0881 32.5873 21.0487 32.5973 21.0314 32.595804 21.014 32.594404 20.9967 32.592905 21.0229 32.58651 21.049 32.57761 21.0752 32.5713ZM21.0547 32.6787C21.062302 32.6794 21.0699 32.6799 21.0776 32.6807 21.0334 32.6923 20.9893 32.7031 20.945302 32.71499 20.939402 32.71439 20.9335 32.7133 20.927702 32.71259 20.97 32.70171 21.0123 32.68951 21.0547 32.6787ZM20.7719 32.65471C20.7875 32.65591 20.8031 32.65751 20.8187 32.65871 20.7773 32.66941 20.736102 32.680913 20.694802 32.69181 20.680102 32.69031 20.665602 32.68951 20.650902 32.688 20.6913 32.67781 20.7314 32.66481 20.7719 32.65471ZM20.3682 32.65821C20.4106 32.64771 20.4547 32.641714 20.4972 32.631414 20.5117 32.632413 20.5262 32.634115 20.5407 32.635114 20.5007 32.645315 20.461 32.65771 20.421002 32.668004 20.3987 32.666006 20.376402 32.664205 20.354102 32.662214 20.3588 32.661 20.3635 32.6594 20.3682 32.65821ZM20.4307 32.7485C20.4437 32.7498 20.4566 32.7507 20.4695 32.7519 20.421299 32.765 20.3729 32.7774 20.3246 32.7906 20.3141 32.7894 20.3036 32.7876 20.2932 32.7864 20.3391 32.7743 20.3848 32.76041 20.4307 32.7485ZM20.1389 32.72311C20.1595 32.72491 20.1802 32.72681 20.200901 32.72851 20.158902 32.73971 20.117 32.751813 20.075 32.76321 20.0552 32.76101 20.0356 32.760004 20.015902 32.75791 20.057 32.74741 20.0977 32.7336 20.1389 32.72311ZM20.0833 32.8441C20.0935 32.8452 20.103699 32.8457 20.114 32.8469 20.0541 32.8636 19.994 32.8778 19.934102 32.8949 19.926302 32.8939 19.9183 32.8926 19.910502 32.8917 19.9681 32.8759 20.0256 32.85971 20.0833 32.8441ZM19.912899 32.70351C19.872199 32.71411 19.831799 32.72721 19.7911 32.73791 19.7672 32.73561 19.7435 32.73381 19.7195 32.73161 19.7687 32.719209 19.8198 32.71191 19.869099 32.699609 19.8837 32.70071 19.8983 32.7024 19.912899 32.70351ZM19.7178 32.5023C19.7211 32.5024 19.7244 32.5027 19.7276 32.5027 19.7172 32.5049 19.707 32.5074 19.6965 32.5097 19.692002 32.509504 19.6874 32.5093 19.6828 32.5092 19.6945 32.5069 19.7062 32.5046 19.7178 32.5023ZM19.8007 32.8189C19.8188 32.8207 19.8368 32.8219 19.854899 32.8237 19.8063 32.8372 19.757599 32.8502 19.708998 32.8638 19.693999 32.862 19.678997 32.8594 19.663899 32.8576 19.7097 32.84531 19.7549 32.831 19.8007 32.8189ZM19.576 32.79881C19.5377 32.809209 19.4996 32.820909 19.461401 32.83141 19.435902 32.82851 19.4108 32.82721 19.385302 32.82441 19.4227 32.81461 19.459702 32.80151 19.4971 32.79181 19.5234 32.79411 19.5497 32.79641 19.576 32.79881ZM19.3391 32.5761C19.356699 32.5766 19.3744 32.577699 19.392 32.5782 19.3799 32.581 19.3677 32.583703 19.3555 32.586503 19.3364 32.585405 19.3174 32.585103 19.298199 32.584104 19.3119 32.5812 19.3254 32.5789 19.3391 32.5761ZM19.4698 32.91251C19.484402 32.91421 19.499 32.91591 19.513602 32.91761 19.442902 32.93781 19.3721 32.95531 19.301503 32.97601 19.288702 32.97421 19.276103 32.97281 19.263203 32.971109 19.3322 32.95171 19.4009 32.9315 19.4698 32.91251ZM19.238 32.7687C19.2518 32.7698 19.2656 32.7713 19.279402 32.7724 19.242302 32.7822 19.205702 32.7946 19.168803 32.8046 19.146403 32.8023 19.124302 32.8008 19.102004 32.7985 19.1467 32.78711 19.1932 32.7799 19.238 32.7687ZM18.9695 32.64991C18.9988 32.65111 19.0282 32.65221 19.0576 32.65361 19.0374 32.65841 19.017 32.66241 18.9968 32.66721 18.973099 32.66561 18.949 32.66251 18.9254 32.660909 18.94 32.6576 18.9548 32.65311 18.9695 32.64991ZM18.9586 32.86581C18.900099 32.882 18.8419 32.90051 18.783499 32.916913 18.755299 32.913515 18.7272 32.91051 18.699099 32.90731 18.754899 32.89231 18.81 32.872114 18.865799 32.85741 18.8968 32.86021 18.9277 32.8629 18.9586 32.86581ZM18.6561 32.72771C18.676499 32.72881 18.6964 32.72911 18.7167 32.730314 18.6822 32.739004 18.646599 32.745115 18.612099 32.75381 18.597199 32.75261 18.5822 32.75101 18.567299 32.74981 18.5969 32.74271 18.6266 32.7346 18.6561 32.72771ZM18.4074 32.6268C18.4218 32.6271 18.4364 32.6282 18.4508 32.6285 18.4379 32.6313 18.4252 32.6347 18.412199 32.637605 18.3981 32.636804 18.3841 32.636507 18.3699 32.635805 18.3826 32.63321 18.3947 32.62931 18.4074 32.6268ZM18.3307 32.80851C18.3398 32.80911 18.3491 32.81031 18.3582 32.811 18.3146 32.82241 18.2691 32.8292 18.2256 32.8408 18.2153 32.8436 18.2051 32.8475 18.1948 32.8503 18.1873 32.8497 18.179699 32.8485 18.1722 32.8478 18.2251 32.8345 18.2778 32.8214 18.3307 32.80851ZM18.0892 32.70361C18.101099 32.704 18.112999 32.70471 18.124899 32.70511 18.1169 32.70701 18.109 32.708909 18.101 32.710809 18.0893 32.710008 18.0777 32.710008 18.066 32.70921 18.0739 32.7076 18.0814 32.7053 18.0892 32.70361ZM18.2164 32.9271C18.2516 32.9305 18.2869 32.933504 18.3221 32.937 18.2617 32.954 18.2017 32.9738 18.1412 32.9911 18.109 32.9872 18.076899 32.9838 18.044699 32.98 18.1022 32.96421 18.1589 32.9426 18.2164 32.9271ZM18.0084 32.9077C17.9546 32.9225 17.9015 32.9421 17.8477 32.9572 17.8213 32.9542 17.7947 32.950899 17.768301 32.947999 17.8297 32.9316 17.890702 32.918298 17.952002 32.902399 17.9708 32.90411 17.9896 32.906 18.0084 32.9077ZM17.7443 32.689C17.762402 32.68951 17.780802 32.6908 17.7989 32.6913 17.7914 32.692899 17.784102 32.695 17.7766 32.6967 17.7586 32.6957 17.7407 32.6952 17.7227 32.6943 17.73 32.69281 17.7369 32.69041 17.7443 32.689ZM17.7849 32.7771C17.794402 32.7776 17.8039 32.7778 17.8134 32.7784 17.7703 32.788904 17.7267 32.7981 17.6838 32.8088 17.6758 32.8082 17.668 32.8079 17.660099 32.8073 17.702 32.79781 17.7429 32.7864 17.7849 32.7771ZM17.4475 32.76241C17.463501 32.76301 17.4796 32.76391 17.4956 32.76451 17.460499 32.77261 17.4258 32.781614 17.3907 32.78991 17.3765 32.78891 17.3622 32.788 17.347899 32.787 17.3816 32.77971 17.4138 32.7695 17.4475 32.76241ZM17.4546 32.85691C17.4615 32.85741 17.468199 32.85741 17.474999 32.85781 17.421399 32.871614 17.366299 32.88201 17.312699 32.89601 17.307398 32.89551 17.302399 32.895414 17.297099 32.89501 17.3496 32.88231 17.4019 32.8693 17.4546 32.85691ZM17.1198 32.7481C17.1348 32.7486 17.15 32.7496 17.165 32.7501 17.137902 32.7561 17.111502 32.7639 17.0844 32.76999 17.0629 32.768899 17.0412 32.76699 17.019701 32.76579 17.0527 32.759 17.0867 32.75481 17.1198 32.7481ZM17.1253 32.84221C17.139 32.843 17.1526 32.84321 17.166399 32.84401 17.120799 32.85521 17.074999 32.86571 17.0295 32.87711 17.0176 32.87611 17.005799 32.87571 16.993899 32.87471 17.038 32.86451 17.0811 32.8521 17.1253 32.84221ZM16.4622 32.8125C16.4763 32.8129 16.4904 32.8139 16.5044 32.8144 16.4753 32.821 16.4472 32.8296 16.4182 32.8362 16.3939 32.8348 16.369299 32.8328 16.345 32.8314 16.3834 32.82341 16.4238 32.8203 16.4622 32.8125ZM16.0674 32.92521C16.0439 32.92341 16.0204 32.922109 15.9969 32.92041 16.0366 32.91161 16.0745 32.89861 16.1143 32.88991 16.140299 32.891115 16.166399 32.892213 16.1924 32.893514 16.1505 32.9035 16.1093 32.915 16.0674 32.92521ZM16.3729 32.946C16.3561 32.94461 16.3394 32.944 16.3226 32.9426 16.371 32.9313 16.418 32.9171 16.466599 32.9061 16.485598 32.9072 16.5045 32.9075 16.523598 32.908704 16.4734 32.9212 16.4229 32.9332 16.3729 32.946ZM16.6585 32.96671C16.6506 32.965909 16.642601 32.964609 16.6348 32.96391 16.6345 32.96391 16.6343 32.96381 16.634 32.96381 16.6895 32.95021 16.7444 32.936 16.800002 32.92271 16.8096 32.923414 16.819502 32.924814 16.829102 32.92551 16.7726 32.94011 16.7147 32.95171 16.6585 32.96671ZM16.7319 32.8572C16.7127 32.8559 16.6936 32.854703 16.674399 32.8534 16.71 32.8456 16.743998 32.8344 16.779599 32.826704 16.800999 32.827604 16.822299 32.8286 16.843598 32.8296 16.8062 32.83841 16.7692 32.8483 16.7319 32.8572ZM16.8937 32.99451C16.8918 32.994314 16.8898 32.994 16.8879 32.99381 16.9494 32.97791 17.0121 32.96441 17.0739 32.94891 17.0771 32.94911 17.0806 32.94951 17.0839 32.94981 17.0214 32.9669 16.956 32.9771 16.8937 32.99451ZM17.1942 33.03C17.1714 33.02741 17.1487 33.02451 17.1259 33.022 17.1935 33.0037 17.2639 32.99131 17.3317 32.97351 17.342299 32.97451 17.352799 32.97551 17.3633 32.97651 17.3066 32.9924 17.2508 33.01371 17.1942 33.03ZM17.4954 33.0657C17.4593 33.0612 17.423399 33.0573 17.387299 33.052904 17.438199 33.0386 17.4882 33.0189 17.539099 33.0049 17.550398 33.0018 17.561499 32.999605 17.5728 32.996503 17.6103 33.0003 17.6476 33.003404 17.6851 33.0073 17.6216 33.02551 17.5587 33.0471 17.4954 33.0657ZM17.7801 33.0994C17.7503 33.0953 17.7209 33.0929 17.6912 33.088899 17.7584 33.069498 17.8248 33.0459 17.892 33.026998 17.9248 33.030698 17.9573 33.032499 17.9902 33.036397 17.92 33.0569 17.8502 33.0784 17.7801 33.0994ZM18.0339 33.1353C18.0135 33.1323 17.992699 33.12799 17.972199 33.1251 18.044699 33.103799 18.116898 33.0808 18.189499 33.05999 18.2123 33.06279 18.2354 33.06699 18.2582 33.06989 18.1836 33.09221 18.1085 33.1124 18.0339 33.1353ZM18.2578 33.17221C18.2438 33.170003 18.2297 33.16741 18.2158 33.16521 18.293299 33.14191 18.370999 33.12011 18.4487 33.097414 18.4648 33.099515 18.4811 33.10211 18.4973 33.104314 18.4177 33.12851 18.3373 33.1473 18.2578 33.17221ZM18.4974 33.2117C18.479802 33.2088 18.462 33.2057 18.4444 33.2029 18.527 33.1775 18.6103 33.1572 18.693 33.1325 18.701601 33.1337 18.7103 33.1349 18.718802 33.1362 18.6446 33.15921 18.5715 33.18821 18.4974 33.2117ZM18.7537 33.25391C18.7234 33.24871 18.6934 33.24411 18.6633 33.239 18.7477 33.21261 18.8326 33.19061 18.9172 33.16481 18.9409 33.168313 18.9645 33.17141 18.9882 33.175 18.9097 33.1996 18.832 33.22881 18.7537 33.25391ZM4.354 41.4678C8.8133 37.7963 13.8255009 35.0482 19.012902 33.37099 19.028002 33.373804 19.043402 33.37599 19.058503 33.37879 14.021603 35.04119 9.152203 37.676195 4.7905027 41.15229 3.6292027 42.07789 2.5111025 43.06449 1.4254027 44.09429 2.3755 43.1809 3.3466 42.2971 4.354 41.4678ZM3.3818 42.43631C3.8632999 42.02261 4.3452 41.60941 4.8403 41.21481 9.2372 37.711 14.1504 35.06451 19.2302 33.40831 19.2378 33.40971 19.245699 33.41081 19.2532 33.41221 14.330101 35.04871 9.568101 37.588209 5.2778007 40.898408 4.634 41.39531 4.0027 41.9091 3.3818 42.43631ZM4.2426 41.84121C4.6033 41.54721 4.9586 41.246 5.3267 40.96191 9.6516 37.62471 14.4568 35.07591 19.4222 33.44421 19.4313 33.446 19.439799 33.44811 19.4488 33.45 14.637799 35.0569 9.981099 37.4947 5.7650997 40.645 5.2479 41.03141 4.7452 41.43631 4.2426 41.84121ZM5.813 40.7095C5.9129 40.6348 6.0174005 40.567899 6.1178 40.4941 5.7831 40.7379 5.459 40.9944 5.1305005 41.245599 5.3594 41.06871 5.5812 40.88271 5.813 40.7095ZM5.9858 40.69471C6.0916998 40.61681 6.1927998 40.53311 6.2992999 40.45611 6.3447997 40.423109 6.3925998 40.393709 6.4381997 40.361009 6.2853 40.4697 6.1375 40.5844 5.9858 40.69471ZM19.5957 33.48191C19.612099 33.48531 19.6279 33.48911 19.6442 33.49251 15.0686 35.02531 10.636199 37.280614 6.584399 40.164415 10.6255 37.2621 15.0381 34.9902 19.5957 33.48191ZM19.5551 33.6991C19.6908 33.6526 19.8265 33.6071 19.962399 33.561803 19.9651 33.5624 19.9677 33.5629 19.970299 33.563505 19.8322 33.61 19.693 33.65141 19.5551 33.6991ZM20.1084 33.51851C20.104802 33.517709 20.101302 33.517 20.0977 33.51621 20.192 33.48521 20.2859 33.45141 20.3804 33.42091 20.386099 33.42211 20.391699 33.423 20.397299 33.42411 20.301 33.4556 20.2047 33.4865 20.1084 33.51851ZM20.7693 33.28981C20.7777 33.29141 20.7861 33.293 20.794402 33.29451 20.703701 33.32321 20.6133 33.35391 20.522702 33.38321 20.516402 33.38191 20.510102 33.380609 20.503802 33.37931 20.5926 33.351 20.6805 33.3176 20.7693 33.28981ZM62.5391 59.25391C55.9888 56.78561 50.3037 52.45611 44.5742 47.86041 44.256299 47.605 43.938 47.34961 43.6201 47.093709 38.438 42.928709 33.079099 38.62161 26.966298 35.822309 24.854397 34.854909 22.670498 34.106908 20.508498 33.603307 20.612198 33.569208 20.718098 33.541109 20.822098 33.507806 23.060097 33.993307 25.336998 34.748308 27.612797 35.771997 33.854497 38.579107 39.330598 42.946298 44.626497 47.170408L45.231897 47.652807C46.021997 48.282709 46.873498 48.958997 47.745096 49.639608 52.361295 53.244607 57.423795 56.88331 63.155794 59.077108 65.71089 60.056207 68.396999 60.734407 71.139598 61.093309 75.10249 61.612108 79.11279 61.454408 82.96539 60.672208 76.2166 62.1534 68.9794 61.6809 62.5391 59.25391ZM71.1504 61.01421C68.4136 60.65581 65.7334 59.979 63.184099 59.00241 57.4624 56.81251 52.405797 53.17771 47.7939 49.57621 46.923299 48.896 46.0718 48.21971 45.2817 47.59031L44.6763 47.10791C39.377 42.88091 33.8965 38.51031 27.646 35.69871 25.4536 34.712614 23.1854 33.96331 20.945099 33.47021 21.0444 33.43851 21.1449 33.41011 21.244399 33.379114 23.566199 33.851114 25.930499 34.60591 28.293499 35.649415 34.6895 38.473615 40.3013 42.918004 45.7285 47.216318L45.9395 47.383317C46.7832 48.051317 47.610799 48.705118 48.4517 49.360418 53.830099 53.551317 58.498498 56.764619 63.8003 58.826219 66.355 59.819818 69.031208 60.508317 71.7559 60.87262 75.81771 61.41462 79.9248 61.24542 83.853298 60.41162 79.7361 61.3609 75.4126 61.57261 71.1504 61.01421ZM71.7666 60.7935C69.0483 60.4302 66.3779 59.7432 63.8296 58.752 58.536104 56.69381 53.8735 53.48391 48.500505 49.29691 47.660203 48.64211 46.833005 47.988309 45.989305 47.32081L45.778306 47.15331C40.347208 42.852109 34.731409 38.40431 28.325705 35.57621 26.050604 34.57171 23.695405 33.82011 21.375205 33.33921 21.469904 33.30991 21.564805 33.28131 21.659504 33.25261 24.067004 33.70961 26.521204 34.46371 28.973605 35.52641 35.529806 38.36771 41.181604 42.814 46.647005 47.113309L46.774904 47.21391C47.554204 47.82671 48.3604 48.46041 49.158205 49.08111 53.530805 52.480508 58.678705 56.29831 64.4448 58.574708 66.9961 59.583509 69.663608 60.282209 72.372608 60.65191 76.426609 61.20551 80.516307 61.04351 84.422107 60.21531 80.3274 61.15881 76.0208 61.361 71.7666 60.7935ZM72.3833 60.5728C69.6807 60.203599 67.0195 59.506799 64.4741 58.5005 58.7183 56.2275 53.5757 52.4141 49.206998 49.0176 48.4097 48.3975 47.603498 47.763704 46.824697 47.1514L46.696798 47.0508C41.227098 42.7476 35.570798 38.2983 29.005896 35.453104 26.599396 34.4103 24.190796 33.662904 21.826195 33.2018 21.905196 33.1782 21.983695 33.152994 22.062895 33.1297 24.562096 33.5681 27.110995 34.3224 29.654295 35.4033 35.873994 38.0483 41.129896 41.9795 47.354997 46.8442L47.681596 47.0996C48.407197 47.6665 49.134298 48.2354 49.864297 48.8013 54.476099 52.3794 59.451196 56.0625 65.08939 58.3237 67.639598 59.3472 70.29739 60.0562 72.989299 60.4312 77.041698 60.996099 81.127 60.840299 85.02139 60.011999 80.9409 60.95641 76.6403 61.1529 72.3833 60.5728ZM73 60.3521C70.3149 59.978 67.6631 59.2705 65.1191 58.2495 59.490205 55.9922 54.521005 52.313 49.9131 48.7378 49.1836 48.1719 48.4565 47.6035 47.731004 47.036603L47.4038 46.780805C41.1743 41.912607 35.9141 37.978506 29.685502 35.330106 27.1888 34.268407 24.686303 33.521997 22.2304 33.078706 22.3099 33.055505 22.3882 33.029108 22.4678 33.006307 25.0561 33.425508 27.6993 34.182207 30.334 35.281206 36.686 37.929704 42.1211 41.962404 48.0625 46.574205L48.9116 47.233903C49.463899 47.6631 50.016599 48.0928 50.570798 48.52199 55.418897 52.274904 60.227098 55.8296 65.7344 58.072294 68.2808 59.110795 70.9292 59.830095 73.6055 60.20999 77.6593 60.7872 81.7352 60.63719 85.6149 59.8101 81.5496 60.75441 77.2578 60.9446 73 60.3521ZM73.6172 60.13091C70.9473 59.752 68.30521 59.03421 65.7646 57.99801 60.2666 55.759309 55.4634 52.208009 50.619604 48.458509 50.065404 48.029809 49.512704 47.60011 48.960905 47.170907L48.1113 46.510709C42.1655 41.895509 36.7261 37.859407 30.365202 35.20701 27.777302 34.12771 25.181002 33.38001 22.635903 32.95511 22.711003 32.93391 22.784403 32.90781 22.859704 32.88691 25.541604 33.28441 28.284104 34.04191 31.014603 35.15821 37.500505 37.809614 43.114305 41.943414 48.770006 46.30471 49.280805 46.69821 49.791505 47.09371 50.302705 47.48931L51.277307 48.24271C56.359907 52.168 61.003908 55.59861 66.37891 57.821313 68.92431 58.87501 71.563 59.60451 74.22171 59.98931 78.2886 60.579214 82.38601 60.42971 86.28841 59.587114 82.2144 60.5475 77.9018 60.7394 73.6172 60.13091ZM74.2334 59.91021C71.5811 59.52641 68.9487 58.79831 66.409198 57.74711 61.043897 55.52831 56.403795 52.10111 51.326196 48.179208L50.352098 47.425809C49.840299 47.030309 49.329599 46.635309 48.818799 46.241209 43.1587 41.8765 37.54 37.7393 31.0449 35.084 28.3717 33.991 25.687102 33.24181 23.0585 32.8362 23.1304 32.8165 23.203701 32.8011 23.2758 32.7817 26.043702 33.1571 28.876502 33.90599 31.695302 35.035203 38.312 37.685995 44.107904 41.9224 49.4775 46.034704 50.1558 46.554204 50.834 47.076704 51.512704 47.6001L51.983903 47.9634C56.3828 51.3535 61.368204 55.1953 67.0234 57.5698 69.5654 58.638704 72.1948 59.378404 74.8384 59.7686 78.8738 60.3657 82.9315 60.2272 86.794 59.4024 82.7467 60.34581 78.4718 60.5242 74.2334 59.91021ZM74.8501 59.6895C72.2129 59.3003 69.5903 58.5625 67.05471 57.495599 61.40871 55.125989 56.42771 51.287099 52.03271 47.8999L51.561513 47.5366C50.882814 47.0137 50.204614 46.4907 49.526414 45.9712 44.152315 41.8555 38.351114 37.6157 31.724614 34.9609 28.969414 33.8572 26.200114 33.113199 23.491013 32.7278 23.557312 32.710298 23.624413 32.6951 23.690814 32.6779 26.544613 33.0299 29.468413 33.7719 32.375017 34.912599 39.129419 37.56299 45.109918 41.904298 50.185117 45.7651 50.976617 46.3672 51.758817 46.9673 52.689916 47.684099 57.353017 51.269498 62.175317 54.977098 67.66852 57.317899 70.207508 58.402299 72.82712 59.152799 75.45512 59.547899 79.49032 60.156698 83.543918 60.023698 87.397418 59.197698 83.3613 60.1432 79.0921 60.3164 74.8501 59.6895ZM75.4668 59.4687C72.8462 59.0747 70.23291 58.3262 67.6997 57.2446 62.215799 54.9077 57.3979 51.2031 52.7388 47.620599 51.807603 46.903799 51.0254 46.3032 50.233903 45.7017 45.1538 41.8374 39.168004 37.4922 32.404306 34.838399 29.560906 33.722398 26.701004 32.986898 23.905606 32.6241 23.952506 32.6121 23.999506 32.6007 24.046305 32.5889 27.006306 32.9126 30.039706 33.630804 33.055707 34.7896 39.614309 37.3105 45.504907 41.4248 50.893106 45.495103 51.772504 46.160203 52.652307 46.833505 53.396505 47.4043L53.626005 47.5801C58.226606 51.1108 62.984407 54.7617 68.3125 57.066904 70.8481 58.165994 73.458499 58.926805 76.0713 59.327104 80.10051 59.946104 84.1429 59.8198 87.9808 58.9971 83.9603 59.94061 79.702 60.1073 75.4668 59.4687ZM76.7002 59.02731C74.108409 58.62211 71.514209 57.853509 68.9897 56.74221 63.8296 54.476114 59.202104 50.93071 54.7271 47.50201L54.1519 47.06152C53.1992 46.33202 52.4033 45.72852 51.6479 45.16162 46.3154 41.16022 40.4575 37.10992 33.7642 34.592325 30.721398 33.44792 27.657998 32.743726 24.667798 32.433225 24.719798 32.420724 24.771197 32.406724 24.823098 32.394327 27.971697 32.661127 31.207497 33.363428 34.416498 34.544427 41.238298 37.054227 47.289098 41.215829 52.307596 44.956129 53.071794 45.52543 53.890096 46.143629 54.809595 46.845727 55.107896 47.073228 55.405794 47.301828 55.704595 47.530328 60.069295 50.871629 64.58299 54.32673 69.60249 56.564527 72.12889 57.693426 74.72019 58.474126 77.30419 58.885328 81.37799 59.535028 85.33679 59.432729 89.13089 58.610727 85.1502 59.55761 80.9851 59.69981 76.7002 59.02731ZM77.3169 58.80621C74.7397 58.39651 72.15529 57.61771 69.6348 56.49121 64.624 54.25731 60.114305 50.80521 55.752904 47.466814 55.4546 47.23831 55.156206 47.00981 54.858404 46.78221 53.938505 46.080114 53.120103 45.46141 52.355504 44.891614 47.332006 41.148416 41.275403 36.982915 34.4438 34.46921 31.3054 33.31401 28.141402 32.618413 25.056902 32.33591 25.106802 32.32421 25.155903 32.310113 25.205801 32.29861 28.4498 32.53461 31.7896 33.23131 35.0962 34.42141 42.037599 36.91891 48.049798 41.01171 53.0151 44.68651 53.7856 45.25631 54.6035 45.87161 55.5156 46.566408 55.9209 46.874998 56.3257 47.185106 56.7314 47.495107 60.9814 50.746606 65.376 54.108907 70.2466 56.312997 72.7705 57.457498 75.3521 58.248498 77.92041 58.664598 81.99071 59.325098 85.93921 59.229196 89.71721 58.409696 85.7524 59.3546 81.598 59.4896 77.3169 58.80621ZM90.745 58.0378C90.5336 58.0872 90.3189 58.1226 90.1064 58.1674 90.3203 58.1271 90.5331 58.0825 90.7459 58.0374 90.7456 58.03751 90.7453 58.0377 90.745 58.0378ZM80.3999 57.70261C77.8955 57.26761 75.3589 56.43751 72.8599 55.23541 68.520008 53.15231 64.5542 50.10791 60.7187 47.16311 59.9561 46.57761 59.167 45.97171 58.3896 45.385309 57.5405 44.743707 56.7002 44.12401 55.892599 43.542509 49.312498 38.80911 43.577096 35.730508 37.842298 33.854509 35.089399 32.953908 31.529698 32.09921 27.560297 31.891509 31.123297 31.998209 34.803197 32.628709 38.497999 33.80761 44.3076 35.66111 50.0449 38.68951 56.5532 43.33841 57.3521 43.90871 58.1914 44.52491 59.0483 45.16941 59.910203 45.81881 60.784204 46.49121 61.6299 47.14161 65.3721 50.020509 69.2422 52.99761 73.4697 55.05621 75.97121 56.27691 78.50589 57.11961 81.00291 57.56101 84.56401 58.19061 88.01481 58.228509 91.3177 57.677709 87.8277 58.3409 84.1763 58.36081 80.3999 57.70261ZM81.0166 57.4819C78.5273 57.0425 76 56.2017 73.5049 54.9839 69.2847 52.9292 65.418 49.954599 61.6782 47.0781 60.833 46.4277 59.9585 45.755399 59.0962 45.105989 58.2393 44.46039 57.3989 43.843698 56.600099 43.27289 50.084497 38.619588 44.340299 35.587388 38.5225 33.731389 35.043 32.621488 31.5735 31.988589 28.2034 31.827488 31.782999 31.923388 35.4761 32.53389 39.1787 33.68459 44.9888 35.491189 50.9038 38.56049 57.2612 43.06839 58.0757 43.64649 58.915 44.25929 59.754899 44.89009 60.695299 45.59719 61.6484 46.33198 62.569799 47.042493 66.2222 49.85889 69.999 52.771493 74.1147 54.80469 76.646 56.05859 79.1011 56.88769 81.6191 57.33979 85.1799 57.97998 88.6246 58.02398 91.9175 57.47509 88.4386 58.1372 84.7935 58.1512 81.0166 57.4819ZM92.2798 57.3203C88.8818 57.9364 85.3214 57.9252 81.6333 57.2607 79.122608 56.8105 76.674808 55.9834 74.1499 54.7334 70.042 52.703599 66.26809 49.7935 62.618703 46.97899 61.6968 46.26859 60.743703 45.533689 59.802705 44.8267 58.962404 44.194799 58.122606 43.581499 57.307104 43.0029 50.9429 38.4907 45.0205 35.4175 39.202104 33.6084 35.740404 32.5314 32.284505 31.918299 28.923302 31.762598 32.4948 31.854598 36.1743 32.445989 39.858404 33.56199 45.7485 35.34519 51.6724 38.366689 57.968706 42.79879 58.774904 43.36619 59.613306 43.97559 60.460905 44.61079 61.479505 45.37399 62.510305 46.17089 63.5068 46.94189 67.0698 49.696794 70.7544 52.54589 74.7593 54.553194 77.2861 55.822793 79.7314 56.662096 82.2354 57.11909 85.725498 57.75809 89.0981 57.81219 92.3227 57.29829 92.3082 57.3055 92.2943 57.31321 92.2798 57.3203ZM92.5407 57.18731C89.2556 57.73991 85.813 57.69291 82.25 57.04001 79.7534 56.585008 77.3149 55.74801 74.7954 54.481908 70.7974 52.47801 67.1157 49.631307 63.555704 46.878408 62.5586 46.107408 61.5278 45.310506 60.5088 44.546407 59.6606 43.911108 58.8213 43.301309 58.0146 42.733407 51.7114 38.296407 45.7803 35.271509 39.881799 33.485807 36.4391 32.443105 32.9979 31.849806 29.645998 31.699206 33.2095 31.787507 36.875398 32.359807 40.539098 33.439508 46.507799 35.197809 52.4404 38.170907 58.675798 42.52881 59.4937 43.10011 60.331998 43.70651 61.167497 44.33151 62.260297 45.148408 63.363798 46.00491 64.431598 46.832509 67.90869 49.529809 71.504398 52.31881 75.40379 54.302209 77.92479 55.587408 80.36129 56.43651 82.8521 56.898408 86.2439 57.529207 89.519 57.59641 92.6535 57.129709 92.6157 57.1487 92.5787 57.1683 92.5407 57.18731ZM92.8621 57.0234C89.67 57.5261 86.3287 57.4646 82.8667 56.819299 80.3838 56.3589 77.9541 55.5122 75.439899 54.230989 71.54739 52.250989 67.95509 49.464399 64.4805 46.769498 63.412599 45.9414 62.308599 45.084989 61.215299 44.267099 60.3789 43.642099 59.539999 43.0352 58.7217 42.463399 52.479 38.100599 46.538599 35.123498 40.5615 33.362298 37.1324 32.352197 33.7004 31.778988 30.353 31.635298 33.9136 31.718098 37.5704 32.270498 41.2192 33.3164 47.2642 35.048299 53.2061 37.9736 59.3833 42.2593 60.2036 42.828104 61.0415 43.431203 61.874 44.0522 63.036104 44.9194 64.209 45.832 65.342807 46.7144 68.738307 49.357404 72.249507 52.0908 76.04832 54.0508 78.56302 55.3506 80.990207 56.20999 83.468708 56.6772 86.76081 57.3008 89.93761 57.3834 92.98001 56.9633 92.9407 56.98341 92.9015 57.0034 92.8621 57.0234ZM93.1927 56.8549C90.0913 57.3097 86.84711 57.2346 83.483409 56.599103 81.0127 56.1328 78.592807 55.2764 76.08542 53.979505 72.29302 52.022905 68.78472 49.292505 65.392108 46.651407 64.257808 45.768606 63.085008 44.855508 61.921907 43.987806 61.088907 43.366205 60.250005 42.762704 59.429208 42.193807 53.244108 37.902807 47.294908 34.974107 41.241708 33.239305 37.834207 32.262804 34.417909 31.709103 31.080607 31.570405 34.631708 31.649804 38.272607 32.183504 41.899908 33.193807 47.934606 34.873998 54.055208 37.833505 60.09131 41.989305 60.92241 42.562005 61.759809 43.1621 62.58061 43.772905 63.812509 44.689504 65.05321 45.659204 66.25291 46.596704 69.56691 49.1855 72.993709 51.863306 76.693408 53.799806 79.201709 55.115205 81.619609 55.984407 84.08501 56.456506 87.27701 57.069807 90.35821 57.169507 93.3112 56.794404 93.272 56.8148 93.2321 56.8345 93.1927 56.8549ZM93.5228 56.6866C90.5121 57.0952 87.3649 57.0051 84.09961 56.3784 81.64211 55.9072 79.23191 55.0405 76.73051 53.7285 73.03711 51.7959 69.613307 49.1206 66.30221 46.5332 65.10211 45.5957 63.86081 44.626 62.628408 43.7085 61.806608 43.0972 60.968309 42.4966 60.136209 41.9238 54.093309 37.762704 47.964807 34.7993 41.92141 33.1167 38.53691 32.173799 35.13871 31.63999 31.813309 31.506199 35.353609 31.5824 38.977109 32.097 42.58011 33.0708 48.688009 34.722204 54.81741 37.6318 60.79881 41.7202 61.63331 42.2905 62.470209 42.8872 63.28661 43.4937 64.58501 44.457498 65.89061 45.4814 67.15281 46.4717 70.38821 49.0103 73.733409 51.6348 77.337909 53.547899 79.84231 54.879899 82.25101 55.758798 84.7012 56.235799 87.795909 56.838899 90.781108 56.956899 93.6428 56.625398 93.6034 56.64631 93.5623 56.6657 93.5228 56.6866ZM93.8384 56.5197C90.9222 56.8811 87.876209 56.7734 84.716808 56.1577 82.27392 55.6821 79.872608 54.8052 77.37501 53.4775 73.777309 51.5674 70.43461 48.9448 67.20211 46.409204 65.939517 45.418504 64.6338 44.393606 63.33451 43.429204 62.51711 42.822305 61.67921 42.2251 60.84371 41.653806 54.85501 37.561006 48.71731 34.646997 42.600614 32.993707 39.232515 32.082998 35.845315 31.568106 32.525815 31.440606 36.061616 31.511706 39.674417 32.007406 43.260316 32.947805 49.439016 34.568407 55.577615 37.428705 61.506319 41.450204 62.33452 42.011705 63.170919 42.605005 63.993219 43.2139 65.35502 44.222204 66.72172 45.2993 68.043018 46.3403 71.202617 48.8306 74.46971 51.4053 77.982418 53.296403 80.479518 54.6436 82.878917 55.533205 85.31792 56.015104 88.302219 56.6057 91.18232 56.74599 93.94392 56.460805 93.9083 56.48 93.8741 56.5005 93.8384 56.5197ZM94.1331 56.35521C91.31849 56.66771 88.3805 56.53901 85.3335 55.937 82.90229 55.4561 80.5103 54.56931 78.0205 53.2261 74.5142 51.337903 71.2495 48.765604 68.092807 46.2778 66.77051 45.2358 65.403308 44.158704 64.041 43.149404 63.2178 42.539995 62.3799 41.946306 61.5513 41.383806 55.6147 37.357404 49.4678 34.493204 43.2808 32.870607 39.9356 31.993306 36.5656 31.497996 33.257 31.375706 36.783 31.443007 40.3788 31.919707 43.9409 32.825208 50.1885 34.413106 56.3364 37.224107 62.213899 41.180707 63.048299 41.742208 63.884798 42.332506 64.6997 42.934606 66.1216 43.984907 67.5459 45.112306 68.9229 46.203107 72.0098 48.646997 75.20211 51.174306 78.62741 53.045408 81.11961 54.408708 83.50981 55.307607 85.93461 55.793909 87.96041 56.201208 89.93901 56.404809 91.86331 56.404809 92.666118 56.404809 93.45831 56.365308 94.241718 56.29461 94.2053 56.31461 94.1696 56.33521 94.1331 56.35521ZM94.4261 56.1916C91.7143 56.457304 88.884 56.305204 85.9502 55.7158 83.53371 55.23099 81.1509 54.334505 78.6655 52.9751 75.24609 51.107404 72.0571 48.582 68.97271 46.140104 67.59471 45.0493 66.17041 43.921403 64.7476 42.870103 63.931596 42.2676 63.094198 41.676805 62.258798 41.114305 56.372999 37.152307 50.216798 34.337903 43.960397 32.748006 40.636896 31.902705 37.282999 31.426806 33.984197 31.310105 37.501497 31.373705 41.081697 31.831805 44.621095 32.702608 50.937494 34.256307 57.094697 37.018106 62.921396 40.910608 63.747095 41.462408 64.5835 42.049306 65.4062 42.655309 66.8872 43.74661 68.3672 44.92431 69.79831 46.063009 72.81401 48.462419 75.932109 50.943418 79.27151 52.793909 81.756809 54.17291 84.13821 55.08201 86.550807 55.573209 88.63671 55.99901 90.64162 56.212408 92.580608 56.212408 93.24061 56.212408 93.8907 56.179906 94.535907 56.130407 94.4994 56.1508 94.4627 56.1712 94.4261 56.1916ZM94.8704 56.46861C94.8732 56.46811 94.8762 56.468 94.879 56.46751 94.8781 56.46801 94.8771 56.46841 94.8762 56.46891 94.8726 56.46951 94.869197 56.47041 94.8657 56.47111 94.8673 56.4702 94.8688 56.46941 94.8704 56.46861ZM45.3013 32.5801C51.6851 34.098604 57.8516 36.811 63.629404 40.6411 64.462909 41.1938 65.2983 41.7773 66.112308 42.37599 67.651409 43.5068 69.186008 44.7349 70.67042 45.9219 73.615718 48.2773 76.660617 50.7134 79.916507 52.542505 82.39651 53.937505 84.768108 54.856405 87.16701 55.352506 89.26861 55.787607 91.28561 56.005907 93.234409 56.005907 93.78341 56.005907 94.32522 55.982107 94.8636 55.947408 94.808109 55.979207 94.7511 56.00971 94.69539 56.041307 92.11229 56.256807 89.414989 56.075609 86.56639 55.495107 84.162097 55.005407 81.78859 54.098608 79.31049 52.723608 75.97659 50.876996 72.86129 48.397909 69.84809 46.000509 68.41649 44.86131 66.93549 43.683107 65.454097 42.59081 64.62989 41.98391 63.792497 41.396509 62.965795 40.844209 57.131296 36.94631 50.965795 34.181207 44.640596 32.624509 41.339296 31.812609 38.002096 31.356108 34.713998 31.244809 38.2228 31.30411 41.7865 31.74331 45.3013 32.5801Z" fill="#8798d6"/>
</g>
</g>
</g>
</g>
<g clip-path="url(#clip_6)">
<text fill="#18275d" xml:space="preserve" transform="matrix(1.080326 0 0 1.080326 -.66409686 -10.170364)" font-size="53.33" font-family="YesevaOne"><tspan y="55" x="11.328125 43.85823 61.98976 94.51987 129.18309 164.64624 194.50995">FloChem</tspan></text>
<text fill="#18275d" xml:space="preserve" transform="matrix(1.080326 0 0 1.080326 -.66409686 -10.170364)" font-size="53.33" font-family="YesevaOne"><tspan y="55" x="245.17188"> </tspan></text>
<text fill="#1b264e" xml:space="preserve" transform="matrix(.75 0 0 .75 94.17641 56.703477)" font-size="25.03" font-family="Garet" font-weight="bold"><tspan y="26" x=".046875 16.632218 28.139389 43.999269 61.535203 77.770328 83.64899 98.05797 112.46695">Trade LLP</tspan></text>
</g>
</svg>
